<svg xmlns="http://www.w3.org/2000/svg" width="11.672" height="7.401" viewBox="0 0 11.672 7.401"><defs><style>.a{fill:#525252;}</style></defs><g transform="translate(-9 -24)"><g transform="translate(9 24)"><path class="a" d="M9.854,976.362a.856.856,0,0,0-.316.062l4.955,4.217a.482.482,0,0,0,.676,0l4.96-4.221a.855.855,0,0,0-.311-.058Zm-.845.73a.88.88,0,0,0-.009.124v5.694a.852.852,0,0,0,.854.854h9.964a.852.852,0,0,0,.854-.854v-5.694a.88.88,0,0,0-.009-.124l-4.937,4.2a1.387,1.387,0,0,1-1.788,0Z" transform="translate(-9 -976.362)"/></g></g></svg>