<svg xmlns="http://www.w3.org/2000/svg" width="7.013" height="8.769" viewBox="0 0 7.013 8.769"><defs><style>.a{fill:#525252;fill-rule:evenodd;}</style></defs><g transform="translate(457.572 3347.066)"><g transform="translate(-457.572 -3347.066)"><path class="a" d="M42.852,9.362c-.3-.637-.332-1.191-1.357-.858a1.9,1.9,0,0,0-.886.72c-.886.969-.637,3.1.664,5.15,1.329,2.021,3.184,3.129,4.43,2.713a2.024,2.024,0,0,0,1.024-.526c.72-.8.249-1.052-.221-1.578-.415-.471-.748-.969-1.467-.554-.111.138-.72.748-1.024.692a4.773,4.773,0,0,1-1.523-1.55,4.809,4.809,0,0,1-.775-1.993c.083-.3.858-.609,1.052-.664C43.434,10.414,43.129,9.916,42.852,9.362Z" transform="translate(-40.086 -8.404)"/></g></g></svg>