<svg xmlns="http://www.w3.org/2000/svg" width="23.308" height="24.708" viewBox="0 0 23.308 24.708"><defs><style>.a{fill:#525252;}</style></defs><path class="a" d="M25.472,13.922c-7.8.659-8.291,1.18-8.922,8.95-.659-7.769-1.18-8.291-8.95-8.922,7.769-.659,8.263-1.18,8.922-8.95C17.154,12.769,17.675,13.291,25.472,13.922Z" transform="translate(-7.6 -5)"/><path class="a" d="M53.336,73.5c-2.965.247-3.185.467-3.4,3.432-.247-2.965-.439-3.185-3.432-3.4,2.965-.247,3.185-.439,3.4-3.432C50.151,73.065,50.371,73.257,53.336,73.5Z" transform="translate(-35.821 -52.228)"/><path class="a" d="M66.093,46.369c-4.338.357-4.64.659-5,5-.357-4.338-.659-4.612-5-4.969,4.338-.357,4.64-.659,5-5C61.453,45.738,61.728,46.012,66.093,46.369Z" transform="translate(-42.785 -31.407)"/></svg>