<svg xmlns="http://www.w3.org/2000/svg" width="17.164" height="18.861" viewBox="0 0 17.164 18.861"><defs><style>.a{fill:#525252;}</style></defs><g transform="translate(0 0)"><path class="a" d="M9.049,25.738v2.251a1.038,1.038,0,0,0,1.038,1.038H17V24.7H10.087A1.038,1.038,0,0,0,9.049,25.738Z" transform="translate(-9.049 -20.571)"/><path class="a" d="M59.924,24.7H53.011v4.326h6.913a1.038,1.038,0,0,0,1.038-1.038V25.738A1.038,1.038,0,0,0,59.924,24.7Z" transform="translate(-43.798 -20.571)"/><path class="a" d="M13.652,57.968a.672.672,0,0,0,.672.672h6.314V49H13.652Z" transform="translate(-12.687 -39.779)"/><path class="a" d="M53.011,58.64h6.314A.672.672,0,0,0,60,57.968V49H53.011Z" transform="translate(-43.798 -39.779)"/><path class="a" d="M25.381,8.4a4.133,4.133,0,0,0,1.985.282c.73,0,1.377-.05,1.4-.052a.438.438,0,0,0,.355-.638c-.2-.389-1.237-2.348-1.978-2.761A1.814,1.814,0,1,0,25.381,8.4Zm.065-2.04A.936.936,0,0,1,26.72,6a6.641,6.641,0,0,1,1.3,1.8c-.2.007-.421.013-.653.013a3.835,3.835,0,0,1-1.558-.171A.938.938,0,0,1,25.446,6.358Z" transform="translate(-21.223 -5)"/><path class="a" d="M53.416,8.629c.027,0,.673.052,1.4.052A4.133,4.133,0,0,0,56.8,8.4,1.814,1.814,0,1,0,55.038,5.23C54.3,5.643,53.26,7.6,53.06,7.991a.439.439,0,0,0,.355.638ZM55.465,6a.937.937,0,0,1,.912,1.637,3.833,3.833,0,0,1-1.558.171c-.232,0-.456-.005-.653-.013A6.643,6.643,0,0,1,55.465,6Z" transform="translate(-43.798 -5)"/></g></svg>