<svg xmlns="http://www.w3.org/2000/svg" width="22.674" height="22.532" viewBox="0 0 22.674 22.532">
  <g id="menu" transform="translate(36.174 35.532) rotate(180)">
    <path id="Path_1" data-name="Path 1" d="M28.837,44.5H15.175A1.692,1.692,0,0,0,13.5,46.177h0a1.692,1.692,0,0,0,1.677,1.677h13.69a1.692,1.692,0,0,0,1.677-1.677h0A1.7,1.7,0,0,0,28.837,44.5Z" transform="translate(5.63 -21.896)" fill="#fff"/>
    <path id="Path_2" data-name="Path 2" d="M34.172,13h-19A1.692,1.692,0,0,0,13.5,14.677h0a1.692,1.692,0,0,0,1.677,1.677H34.2a1.692,1.692,0,0,0,1.677-1.677h0A1.718,1.718,0,0,0,34.172,13Z" transform="translate(0)" fill="#fff"/>
    <path id="Path_3" data-name="Path 3" d="M34.172,75.9h-19A1.692,1.692,0,0,0,13.5,77.577h0a1.692,1.692,0,0,0,1.677,1.677H34.2a1.692,1.692,0,0,0,1.677-1.677h0A1.718,1.718,0,0,0,34.172,75.9Z" transform="translate(0 -43.722)" fill="#fff"/>
  </g>
</svg>
