<svg xmlns="http://www.w3.org/2000/svg" width="14.102" height="10.311" viewBox="0 0 14.102 10.311"><defs><style>.a{fill:#525252;}</style></defs><path class="a" d="M10.032,976.362a.914.914,0,0,0-.382.087l5.987,5.874a.529.529,0,0,0,.817,0l5.992-5.881a.913.913,0,0,0-.376-.081Zm-1.021,1.016a1.414,1.414,0,0,0-.011.173v7.932a1.117,1.117,0,0,0,1.032,1.19H22.07a1.117,1.117,0,0,0,1.032-1.19v-7.932a1.414,1.414,0,0,0-.011-.173l-5.965,5.85a1.509,1.509,0,0,1-2.16,0Z" transform="translate(-9 -976.362)"/></svg>