<svg xmlns="http://www.w3.org/2000/svg" width="9.826" height="12.287" viewBox="0 0 9.826 12.287"><defs><style>.a{fill:#fff;fill-rule:evenodd;}</style></defs><path class="a" d="M43.962,9.746c-.427-.892-.466-1.668-1.9-1.2A2.665,2.665,0,0,0,40.82,9.552c-1.241,1.358-.892,4.345.931,7.216,1.862,2.832,4.461,4.384,6.207,3.8a2.836,2.836,0,0,0,1.435-.737c1.009-1.125.349-1.474-.31-2.211-.582-.659-1.047-1.358-2.056-.776-.155.194-1.009,1.047-1.435.97a6.687,6.687,0,0,1-2.134-2.172,6.739,6.739,0,0,1-1.086-2.793c.116-.427,1.2-.853,1.474-.931C44.777,11.221,44.35,10.522,43.962,9.746Z" transform="translate(-40.086 -8.404)"/></svg>