<svg xmlns="http://www.w3.org/2000/svg" width="15.734" height="16" viewBox="0 0 15.734 16"><defs><style>.a{fill:#525252;}</style></defs><g transform="translate(-3.2 -2.417)"><path class="a" d="M8.976,16.267H3.2V14.4a1.342,1.342,0,0,1,.47-1.024,20.808,20.808,0,0,1,3.459-2.267,22.852,22.852,0,0,0,1.377,2.754s.487-1.73,1.293-1.259a19.574,19.574,0,0,1-2.149-1.9V9.483a3.045,3.045,0,0,1-.386-1.041c-.151-.017-.336-.218-.537-.94-.252-.924-.017-1.108.218-1.125-.017-.084-.034-.151-.05-.235h0a2.873,2.873,0,0,1,0-1.31A3.092,3.092,0,0,1,7.65,3.489,4.678,4.678,0,0,1,8.355,2.9a2.425,2.425,0,0,1,.688-.353h0a2.543,2.543,0,0,1,.621-.118,2.489,2.489,0,0,1,1.562.336,1.864,1.864,0,0,1,.756.705s1.259.084.84,2.67c-.017.084-.034.151-.05.235.235,0,.487.185.218,1.125-.2.722-.4.924-.537.94a3.045,3.045,0,0,1-.386,1.041v1.226A22.838,22.838,0,0,1,9.917,12.59c.806-.453,1.293,1.259,1.293,1.259A22.852,22.852,0,0,0,12.587,11.1c.386.2.974.537,1.646.957a3.769,3.769,0,0,0-2.065,3.358,3.521,3.521,0,0,0,.1.856H8.976Zm6.969-3.829a2.989,2.989,0,1,1-2.989,2.989A2.985,2.985,0,0,1,15.945,12.439ZM15.441,14a.453.453,0,1,0,.453-.453A.451.451,0,0,0,15.441,14Zm-.118,3.157h1.209V16.57h-.218v-1.83H15.307v.588h.218v1.209h-.218v.621Z" transform="translate(0 0)"/></g></svg>