<svg xmlns="http://www.w3.org/2000/svg" width="16.481" height="16.478" viewBox="0 0 16.481 16.478"><defs><style>.a{fill:#525252;}</style></defs><g transform="translate(-1.991 -2.001)"><path class="a" d="M3.776,15.543A7.607,7.607,0,0,1,1.992,10.49,2.53,2.53,0,0,1,3.5,8.233l.185-.081A.927.927,0,0,1,4.8,8.439l1.25,1.629A.858.858,0,0,1,5.973,11.2l-.843.843a3.828,3.828,0,0,0,.848,1.85l.046.055a4.032,4.032,0,0,0,.494.494l.055.046a3.831,3.831,0,0,0,1.85.848l.843-.843a.858.858,0,0,1,1.133-.076l1.632,1.25a.927.927,0,0,1,.287,1.111l-.081.185A2.53,2.53,0,0,1,9.98,18.478H9.823a7.608,7.608,0,0,1-4.9-1.784l-.1-.08a7.968,7.968,0,0,1-.973-.973ZM16.846,3.624a5.548,5.548,0,0,1-6.759,8.69l-1.819.529a.515.515,0,0,1-.639-.639l.529-1.819a5.548,5.548,0,0,1,8.689-6.761ZM11.232,7.546a.707.707,0,1,0-.705.707A.707.707,0,0,0,11.232,7.546Zm2.4,0a.7.7,0,1,1-.005,0Zm2.4,0a.7.7,0,1,1-.01,0Z" transform="translate(0 0)"/></g></svg>