<svg xmlns="http://www.w3.org/2000/svg" width="14.078" height="15.493" viewBox="0 0 14.078 15.493">
  <g id="menu-services" transform="translate(0 0.028)">
    <path id="Path_1" data-name="Path 1" d="M9.049,25.551V27.4a.851.851,0,0,0,.851.851h5.67V24.7H9.9a.851.851,0,0,0-.851.851Z" transform="translate(-9.049 -21.318)" fill="#525252"/>
    <path id="Path_2" data-name="Path 2" d="M58.681,24.7h-5.67v3.548h5.67a.851.851,0,0,0,.851-.851V25.551A.851.851,0,0,0,58.681,24.7Z" transform="translate(-45.454 -21.318)" fill="#525252"/>
    <path id="Path_3" data-name="Path 3" d="M13.652,56.356a.551.551,0,0,0,.551.551h5.179V49h-5.73Z" transform="translate(-12.86 -41.442)" fill="#525252"/>
    <path id="Path_4" data-name="Path 4" d="M53.011,56.907H58.19a.551.551,0,0,0,.554-.551V49H53.011Z" transform="translate(-45.454 -41.442)" fill="#525252"/>
    <path id="Path_5" data-name="Path 5" d="M25.2,7.784a3.39,3.39,0,0,0,1.628.231c.6,0,1.129-.041,1.148-.043a.359.359,0,0,0,.291-.523,7.433,7.433,0,0,0-1.622-2.265,1.488,1.488,0,1,0-1.445,2.6Zm.053-1.673a.768.768,0,0,1,1.045-.3,5.447,5.447,0,0,1,1.066,1.476c-.164.006-.345.011-.536.011a3.146,3.146,0,0,1-1.278-.14.769.769,0,0,1-.3-1.053Z" transform="translate(-21.793 -5)" fill="#525252"/>
    <path id="Path_6" data-name="Path 6" d="M53.343,7.973c.022,0,.552.043,1.148.043a3.39,3.39,0,0,0,1.627-.23,1.488,1.488,0,1,0-1.445-2.6,7.455,7.455,0,0,0-1.622,2.265.36.36,0,0,0,.291.523Zm1.681-2.156a.769.769,0,1,1,.748,1.343,3.144,3.144,0,0,1-1.278.14c-.19,0-.374,0-.536-.011a5.449,5.449,0,0,1,1.065-1.472Z" transform="translate(-45.454 -5.001)" fill="#525252"/>
  </g>
</svg>
